<?xml version="1.0" encoding="UTF-8"?>
<svg id="Layer_1" data-name="Layer 1" xmlns="http://www.w3.org/2000/svg" viewBox="0 0 520.29 160.77">
  <defs>
    <style>
      .cls-1 {
        fill: #fff;
      }
    </style>
  </defs>
  <path id="Logo" class="cls-1" d="M132.35,87.54l-13.04,22.59-42.76-73.91c-1.88-3.2-4.52-5.89-7.7-7.81h29.36c4.06,0,7.81,2.17,9.84,5.68l24.3,42.07c2.01,3.51,1.96,7.84,0,11.37ZM76.97,126.88c6.02,7.67,17.68,8.37,20.6,8.43h.75c3.72-.02,7.18-1.86,9.29-4.92l8.83-15.3-16.35-28.26-23.12,40.05ZM71.39,127.5L28.65,53.63l-13.02,22.55c-2.02,3.52-2.02,7.85,0,11.36l24.26,42.09c2.04,3.51,5.78,5.68,9.84,5.68h29.36c-3.17-1.92-5.82-4.61-7.7-7.81h0ZM70.99,36.86c-6.01-7.68-17.69-8.39-20.62-8.44h-.73c-4.02.04-7.71,2.2-9.73,5.68l-8.4,14.56,16.35,28.25,23.13-40.05Z"/>
  <g>
    <g>
      <path class="cls-1" d="M149.61,77.04v-37.06h-12.53v-11.25h39.04v11.25h-12.53v37.06h-13.98Z"/>
      <path class="cls-1" d="M213.92,77.04h-33.87V28.73h33.87v10.83h-20.03v8.39h18.72v9.84h-18.72v8.42h20.03v10.83Z"/>
      <path class="cls-1" d="M217.15,77.04l14.9-48.31h17.55l14.79,48.31h-14.94l-2.37-9.66h-13.66l-2.44,9.66h-13.84ZM240.01,40.52l-4.21,16.95h8.99l-4.11-16.95h-.67Z"/>
      <path class="cls-1" d="M318.75,77.04l-12.03-48.31h11.98l7.52,30.15h.64l7.18-30.15h10.94l7.18,30.15h.67l4.95-30.15h14.47l-12.03,48.31h-13.1l-7.36-27.71h-.5l-7.4,27.71h-13.13Z"/>
      <path class="cls-1" d="M318.7,28.73l12.03,48.31h-11.98s-7.52-30.15-7.52-30.15h-.64l-7.18,30.15h-10.94l-7.18-30.15h-.67l-4.95,30.15h-14.47l12.03-48.31h13.1l7.36,27.71h.5l7.4-27.71h13.13Z"/>
      <path class="cls-1" d="M394.39,77.89c-14.44,0-22.47-8.85-22.47-22.4v-4.99c0-13.73,8.03-22.58,22.47-22.58s22.44,8.95,22.44,22.58v4.99c0,13.56-7.96,22.4-22.44,22.4ZM394.39,39.07c-4.99,0-8.18,3.93-8.18,11.25v5.24c0,7.36,3.19,11.15,8.18,11.15s8.14-3.79,8.14-11.15v-5.24c0-7.33-3.15-11.25-8.14-11.25Z"/>
      <path class="cls-1" d="M461.17,45.16c0,7.96-5.63,12.39-8.49,13.66l9.52,18.23h-15.39l-7.86-16.42h-4.53v16.42h-13.7V28.73h21.7c12.42,0,18.76,6.65,18.76,16.42ZM440.25,51.17c3.61,0,6.51-1.95,6.51-6.05s-3.08-6.26-6.48-6.26h-5.88v12.32h5.84Z"/>
      <path class="cls-1" d="M494.13,49.83l16.71,27.22h-16.24l-10.65-18.05-3.64,4.46v13.59h-13.98V28.73h13.98v19.39h.64l14.76-19.39h14.65l-16.21,21.09Z"/>
    </g>
    <g>
      <path class="cls-1" d="M149.62,115.21c0,9.66,4.53,18.3,15.61,18.3,8.6,0,14.26-5.45,14.26-12.21h2.48v.11c0,7.72-6.51,14.4-16.74,14.4-12.92,0-18.12-9.49-18.12-20.92v-8.42c0-11.4,5.49-21.02,17.94-21.02,10.79,0,16.53,7.72,16.53,14.51v.14h-2.44c-.04-5.66-5.03-12.35-14.09-12.35-10.72,0-15.43,8.6-15.43,18.33v9.13Z"/>
      <path class="cls-1" d="M209.46,135.81c-11.68,0-18.3-8.21-18.3-20.74v-8.81c0-12.53,6.65-20.81,18.3-20.81s18.3,8.32,18.3,20.88v8.74c0,12.53-6.65,20.74-18.3,20.74ZM209.46,87.74c-9.8,0-15.82,7.43-15.82,18.26v9.31c0,10.83,5.91,18.19,15.82,18.19s15.78-7.36,15.78-18.19v-9.31c0-10.83-5.98-18.26-15.78-18.26Z"/>
      <path class="cls-1" d="M239.51,134.67v-48.1h2.55l18.37,41.44h.14l18.44-41.44h2.48v48.1h-2.34v-42.51h-.14l-17.31,38.79h-2.41l-17.31-38.79h-.14v42.51h-2.34Z"/>
      <path class="cls-1" d="M295.22,134.67v-48.1h2.55l18.37,41.44h.14l18.44-41.44h2.48v48.1h-2.34v-42.51h-.14l-17.31,38.79h-2.41l-17.31-38.79h-.14v42.51h-2.34Z"/>
      <path class="cls-1" d="M378.21,134.67h-27.29v-48.1h27.29v2.34h-24.77v19.93h23.57v2.34h-23.57v21.16h24.77v2.34Z"/>
      <path class="cls-1" d="M419.69,99.99c0,7.47-4.53,11.61-10.41,12.95l11.18,21.73h-2.94l-10.94-21.24h-14.47v21.24h-2.51v-48.1h15.61c8.95,0,14.47,5.41,14.47,13.41ZM404.79,111.17c7.54,0,12.32-4.25,12.32-11.15s-4.78-11.18-12.28-11.18h-12.71v22.33h12.67Z"/>
      <path class="cls-1" d="M431.73,115.21c0,9.66,4.53,18.3,15.61,18.3,8.6,0,14.26-5.45,14.26-12.21h2.48v.11c0,7.72-6.51,14.4-16.74,14.4-12.92,0-18.12-9.49-18.12-20.92v-8.42c0-11.4,5.49-21.02,17.94-21.02,10.8,0,16.53,7.72,16.53,14.51v.14h-2.44c-.03-5.66-5.03-12.35-14.09-12.35-10.72,0-15.43,8.6-15.43,18.33v9.13Z"/>
      <path class="cls-1" d="M502.55,134.67h-27.29v-48.1h27.29v2.34h-24.77v19.93h23.57v2.34h-23.57v21.16h24.77v2.34Z"/>
    </g>
  </g>
</svg>